<svg width="24" height="24" viewBox="0 0 24 24" fill="none" xmlns="http://www.w3.org/2000/svg">
<path d="M19.0615 8.29981V4.54549C19.0636 3.69159 18.4434 3 17.6802 3H6.31892C5.55575 3 4.93555 3.69158 4.93555 4.54783V8.29981H6.22849" stroke="#231F20" stroke-width="0.5" stroke-miterlimit="10" stroke-linecap="round" stroke-linejoin="round"/>
<path d="M17.8961 8.29785H19.063L22 15.0302H11.9989H2L4.93703 8.29785" stroke="#231F20" stroke-width="0.5" stroke-miterlimit="10" stroke-linecap="round" stroke-linejoin="round"/>
<path d="M22 15.0293H2V19.8163H22V15.0293Z" stroke="#231F20" stroke-width="0.5" stroke-miterlimit="10" stroke-linecap="round" stroke-linejoin="round"/>
<path d="M6.32319 7.40529L6.0625 9.76468C6.0625 9.76468 8.56644 10.5621 11.4089 9.76468V7.40529C11.4089 7.40529 9.02266 6.07151 6.32319 7.40529Z" stroke="#231F20" stroke-width="0.5" stroke-miterlimit="10" stroke-linecap="round" stroke-linejoin="round"/>
<path d="M17.7276 7.40529L17.9883 9.76468C17.9883 9.76468 15.4843 10.5621 12.6419 9.76468V7.40529C12.6419 7.40529 15.0281 6.07151 17.7276 7.40529Z" stroke="#231F20" stroke-width="0.5" stroke-miterlimit="10" stroke-linecap="round" stroke-linejoin="round"/>
<path d="M5.11566 19.8193H3.12891V21.0002H5.11566V19.8193Z" stroke="#231F20" stroke-width="0.5" stroke-miterlimit="10" stroke-linecap="round" stroke-linejoin="round"/>
<path d="M18.8843 20.9971H20.8711V19.8162H18.8843V20.9971Z" stroke="#231F20" stroke-width="0.5" stroke-miterlimit="10" stroke-linecap="round" stroke-linejoin="round"/>
<path d="M11.3789 8.28613H12.6403" stroke="#231F20" stroke-width="0.5"/>
</svg>
