<svg width="147" height="38" viewBox="0 0 147 38" fill="none" xmlns="http://www.w3.org/2000/svg">
<path d="M1.41986 32.7674C0.949977 31.4546 0.59478 30.1075 0.357982 28.7417C0.120256 27.373 0 25.9866 0 24.5978C0 17.8054 2.79861 11.6557 7.32251 7.20452C11.8467 2.75302 18.0968 0 25.0002 0C31.9032 0 38.1536 2.75302 42.6775 7.20452C47.2017 11.6557 50 17.8057 50 24.5978C50 25.9939 49.8785 27.3876 49.6383 28.7627C49.3987 30.1357 49.0401 31.489 48.5656 32.8072L47.7649 32.5292C48.2231 31.256 48.5693 29.9484 48.8012 28.6219C49.0324 27.2975 49.1493 25.951 49.1493 24.5978C49.1493 18.0365 46.4465 12.0958 42.0762 7.79613C37.7724 3.5615 31.8512 0.917675 25.3028 0.838591V7.68845L26.2874 8.65723V10.2836C27.0528 10.3812 27.8482 10.5634 28.6136 10.8634C29.6109 11.2536 30.5572 11.8422 31.3211 12.699L31.3918 12.8821V14.9818H27.6652C27.4683 15.5697 27.144 16.0649 26.7409 16.4235C26.2815 16.832 25.7207 17.0663 25.126 17.0663C24.5225 17.0663 23.9553 16.8263 23.4934 16.4086C23.098 16.0512 22.7806 15.5615 22.5864 14.9818H18.572V12.8821L18.6295 12.7142C19.4456 11.6521 20.4926 11.0145 21.6095 10.6456C22.2903 10.4208 22.9954 10.297 23.6885 10.2377V8.59183L24.7358 7.68419V0.838591C18.1723 0.907637 12.2362 3.55329 7.92409 7.79643C3.55414 12.0961 0.851053 18.0365 0.851053 24.5981C0.851053 25.9446 0.96667 27.2839 1.19543 28.6015C1.42481 29.9219 1.76733 31.2231 2.22084 32.49L1.42017 32.7677L1.41986 32.7674ZM9.25894 25.5985C8.6552 24.9138 8.2156 24.2404 8.23508 22.9978L8.51763 23.0009C8.50094 24.0697 8.85985 24.6927 9.3693 25.2952C9.47317 25.0592 9.6095 24.856 9.77551 24.6823C9.73594 23.3902 9.32973 22.1589 8.09535 21.439C7.12806 23.396 7.20968 25.0774 9.14147 26.267C9.16002 26.0231 9.19958 25.8007 9.25894 25.5982V25.5985ZM8.2796 26.8653H9.13683C9.13188 26.7698 9.1291 26.6767 9.12941 26.5864C6.90147 25.2946 6.77627 23.382 7.90863 21.1829L7.97448 21.0551L8.10184 21.1229C9.45122 21.8399 9.95821 23.0836 10.0463 24.4448C10.6664 23.987 11.5654 23.8312 12.6548 23.8811L12.8115 23.8881L12.7887 24.0402C12.6913 24.6914 12.4702 25.3001 12.0405 25.8348C11.7271 26.2244 11.3039 26.5727 10.7385 26.8659H11.0303C11.0813 26.8659 11.1354 26.872 11.191 26.8833C11.3521 26.9158 11.5045 26.9958 11.6164 27.1056C11.741 27.2282 11.8211 27.3891 11.8211 27.5698C11.8211 27.6075 11.8164 27.6489 11.8075 27.6927L11.2699 30.2763C11.2591 30.3286 11.2448 30.3803 11.2269 30.4302H13.3853C13.7222 30.4302 14.0289 30.5658 14.2512 30.7845L14.2524 30.7857C14.4744 31.0044 14.6126 31.3062 14.6126 31.6377V32.1423C14.6126 32.4748 14.4744 32.7768 14.2524 32.9955C14.0289 33.2139 13.7222 33.3499 13.3853 33.3499H13.168L13.9424 37.2125C14.0255 37.6304 13.7294 38 13.2932 38C12.9046 38 12.5747 37.6998 12.4681 37.3445L11.2659 33.3502H8.39243L7.1902 37.3445C7.08355 37.6998 6.7537 38 6.36511 38C5.92861 38 5.63246 37.6304 5.71562 37.2125L6.49001 33.3499H5.89554C5.55765 33.3499 5.25068 33.2139 5.02841 32.9955C4.80645 32.7768 4.66827 32.4748 4.66827 32.1423V31.6377C4.66827 31.3062 4.80645 31.0044 5.02841 30.7857C5.25068 30.5658 5.55765 30.4302 5.89554 30.4302H8.04496C8.02703 30.3788 8.01281 30.3258 8.00199 30.272L7.50181 27.6884C7.49408 27.6473 7.49006 27.6087 7.49006 27.5728C7.49006 27.3909 7.57136 27.2279 7.6978 27.1038C7.81187 26.9919 7.96675 26.9116 8.12997 26.8808C8.18098 26.8711 8.23106 26.8659 8.27991 26.8659L8.2796 26.8653ZM9.88494 26.8653H10.0602C10.8745 26.5469 11.4377 26.1365 11.8189 25.662C12.1803 25.2128 12.3818 24.7012 12.4829 24.1528C11.5079 24.1266 10.7128 24.2805 10.1792 24.6951C9.64474 25.1097 9.36528 25.798 9.41907 26.844L9.58384 26.8577C9.91122 26.0386 10.1907 25.3795 11.2504 24.8843L11.3713 25.1358C10.4522 25.5653 10.1749 26.1466 9.88494 26.8653ZM10.57 30.9871C10.5446 30.9898 10.519 30.9911 10.4924 30.9911H8.77947C8.75319 30.9911 8.72722 30.9898 8.70187 30.9871H5.89492C5.71377 30.9871 5.54838 31.0604 5.42874 31.1781C5.3088 31.2955 5.23461 31.4583 5.23461 31.6368V32.1414C5.23461 32.3197 5.30942 32.4824 5.42874 32.5998C5.54838 32.7175 5.71377 32.7911 5.89492 32.7911H13.3847C13.5661 32.7911 13.7315 32.7181 13.8515 32.6004C13.9705 32.4821 14.0453 32.3197 14.0453 32.1411V31.6365C14.0453 31.458 13.9711 31.2952 13.8515 31.1772C13.7315 31.0598 13.5661 30.9865 13.3847 30.9865H10.57V30.9871ZM8.74392 30.4293H10.5283C10.5595 30.4223 10.5864 30.4064 10.6089 30.3842C10.6612 30.3328 10.6973 30.2535 10.7159 30.1643L11.2535 27.5807L11.2538 27.5689C11.2538 27.547 11.2386 27.5223 11.2152 27.4992C11.1793 27.4636 11.1295 27.4375 11.0779 27.4274C11.0649 27.4247 11.0488 27.4235 11.0303 27.4235H8.2796C8.26352 27.4235 8.24868 27.4247 8.23601 27.4271C8.18191 27.4369 8.13214 27.4627 8.09597 27.498C8.07186 27.5214 8.0564 27.5479 8.0564 27.5725L8.05702 27.5856L8.5572 30.1689C8.57389 30.2556 8.60913 30.3331 8.66014 30.3836C8.68333 30.4064 8.71146 30.4226 8.7433 30.4296L8.74392 30.4293ZM7.06686 33.3493L6.27114 37.3187C6.22817 37.5337 6.56729 37.4522 6.64674 37.1867L7.80198 33.3493H7.06686ZM12.5899 33.3493H11.8551L13.01 37.1867C13.0446 37.3016 13.1602 37.4412 13.2925 37.4412C13.3732 37.4345 13.4023 37.4005 13.3859 37.3187L12.5899 33.3493ZM7.47399 31.5176H11.8059C11.9691 31.5176 12.103 31.6493 12.103 31.8099V31.9687C12.103 32.1296 11.9691 32.261 11.8059 32.261H7.47399C7.31045 32.261 7.17691 32.1296 7.17691 31.9687V31.8099C7.17691 31.6493 7.31076 31.5176 7.47399 31.5176ZM25.7195 10.2258V8.88839L25.0091 8.18942L24.2548 8.84307V10.2024C24.4895 10.193 24.7213 10.1905 24.9491 10.1927C25.1986 10.1951 25.4564 10.2057 25.7195 10.2258ZM20.1164 12.9658C20.5115 12.6065 20.9492 12.2917 21.4343 12.0283C21.9184 11.7658 22.4504 11.5544 23.0365 11.4005L23.1806 11.9389C22.6421 12.0803 22.1524 12.275 21.7069 12.5168C21.2627 12.7577 20.8621 13.0461 20.4994 13.3755L20.1164 12.9658ZM27.0646 14.9815H23.1861C23.3506 15.3924 23.5889 15.7389 23.8758 15.9986C24.2338 16.322 24.6681 16.5078 25.1254 16.5078C25.577 16.5078 26.0067 16.3271 26.3613 16.0111C26.654 15.7507 26.8976 15.3991 27.0646 14.9815ZM21.7882 11.173C20.7981 11.5 19.8691 12.0575 19.138 12.9761V14.4236H30.824V12.9871C30.1368 12.2443 29.2934 11.7275 28.4044 11.3798C27.25 10.9281 26.0178 10.759 24.9442 10.7487C23.9237 10.7386 22.8204 10.832 21.7879 11.173H21.7882ZM19.7949 23.0702H29.5791C29.8508 23.0702 30.0975 23.1794 30.2762 23.3552C30.3658 23.4434 30.4385 23.5487 30.4886 23.6655C30.5386 23.5487 30.6113 23.4434 30.7009 23.3552C30.8793 23.1797 31.126 23.0702 31.3977 23.0702H41.1819C41.4536 23.0702 41.7003 23.1794 41.879 23.3552C42.0574 23.5307 42.1683 23.7738 42.1683 24.0408V26.9246L42.1687 26.9243L42.1699 26.9231C42.3269 26.7689 42.5436 26.6728 42.7817 26.6728H44.4278C44.6659 26.6728 44.8822 26.7686 45.0393 26.9231L45.0405 26.9243C45.1973 27.0788 45.2949 27.2921 45.2949 27.5263V34.2819C45.2949 34.5161 45.1976 34.7293 45.0405 34.8838L45.0393 34.885C44.8822 35.0392 44.6659 35.1353 44.4278 35.1353H42.7817C42.7282 35.1353 42.6759 35.1305 42.6252 35.1213H42.4444L42.9474 37.2454H44.2921V37.8035H42.543L40.0406 35.1217H21.1313L18.6289 37.8035H16.8795V37.2454H18.2242L18.7272 35.1213H18.4029C18.3522 35.1308 18.2999 35.1353 18.2465 35.1353H16.6003C16.3623 35.1353 16.1456 35.0395 15.9885 34.885L15.9876 34.8838C15.8306 34.7293 15.7332 34.5161 15.7332 34.2819V27.5263C15.7332 27.2921 15.8306 27.0788 15.9876 26.9243L15.9885 26.9231C16.1456 26.7689 16.3623 26.6728 16.6003 26.6728H18.2465C18.4607 26.6728 18.6573 26.7503 18.8091 26.8784V24.0405C18.8091 23.7735 18.9201 23.5304 19.0984 23.3549C19.2768 23.1794 19.5238 23.0699 19.7955 23.0699L19.7949 23.0702ZM41.8623 35.1207H40.8081L42.2209 36.6349L41.8623 35.1207ZM20.3625 35.1207H19.3083L18.95 36.6349L20.3625 35.1207ZM19.3757 30.0113H29.9986V24.0408C29.9986 23.928 29.951 23.8246 29.8749 23.7497C29.7989 23.6749 29.6941 23.6284 29.5791 23.6284H19.7949C19.6799 23.6284 19.5748 23.6749 19.4988 23.7497C19.4227 23.8246 19.3754 23.9277 19.3754 24.0408V30.0113H19.3757ZM30.9785 30.0113H41.6011V24.0408C41.6011 23.928 41.5538 23.8246 41.4777 23.7497C41.4017 23.6749 41.2969 23.6284 41.1819 23.6284H31.3977C31.283 23.6284 31.1779 23.6749 31.1019 23.7497C31.0258 23.8246 30.9785 23.9277 30.9785 24.0408V30.0113ZM41.6011 30.5692H30.9785V32.2013H41.6011V30.5692ZM29.9986 30.5692H19.3757V32.2013H29.9986V30.5692ZM41.9631 34.5629C41.9315 34.4747 41.9142 34.3801 41.9142 34.2815V32.7592H30.5655H30.4116H19.1133V34.2815C19.1133 34.3801 19.0963 34.4747 19.0647 34.5629H41.9634H41.9631ZM16.8046 34.5629H18.338C18.3837 34.5483 18.4251 34.5231 18.4585 34.4905C18.5126 34.437 18.5463 34.3628 18.5463 34.2815V27.526C18.5463 27.4448 18.5123 27.3705 18.4585 27.317C18.4041 27.2638 18.329 27.2306 18.2465 27.2306H16.6003C16.5178 27.2306 16.4423 27.2641 16.3879 27.317C16.3338 27.3705 16.3004 27.4448 16.3004 27.526V34.2815C16.3004 34.3628 16.3341 34.437 16.3879 34.4905C16.4423 34.5437 16.5178 34.5769 16.6003 34.5769H16.8046V34.5629ZM42.6898 34.5629H44.311V34.5769H44.4275C44.51 34.5769 44.5852 34.5434 44.6396 34.4905C44.6937 34.437 44.7274 34.3628 44.7274 34.2815V27.526C44.7274 27.4448 44.6934 27.3705 44.6396 27.317C44.5852 27.2638 44.51 27.2306 44.4275 27.2306H42.7814C42.6985 27.2306 42.6234 27.2641 42.569 27.317C42.5149 27.3705 42.4812 27.4448 42.4812 27.526V34.2815C42.4812 34.3628 42.5152 34.437 42.569 34.4905C42.6024 34.5231 42.6438 34.548 42.6898 34.5629Z" fill="#B08A3E"/>
<path d="M72.8578 23.056V18.5508C72.7007 18.5508 72.5436 18.5508 72.3865 18.5508C69.2192 18.5508 66.8372 19.0724 65.1883 20.1717C62.4921 21.9848 61 24.8418 61 28.1382C61 31.4349 62.4921 34.3196 65.1883 36.1327C66.8375 37.2313 69.2192 37.7536 72.3865 37.7536C72.5433 37.7536 72.7004 37.7536 72.8578 37.7536V33.2483C72.5172 33.276 72.177 33.276 71.8367 33.276C67.7795 33.276 65.659 31.4079 65.659 28.1388C65.659 24.8974 67.7792 23.0293 71.8367 23.0293C72.177 23.0293 72.5172 23.0293 72.8578 23.057V23.056Z" fill="#292D32"/>
<path d="M87.8073 32.6966L84.7185 31.131C83.8022 32.9441 82.4672 33.9057 80.9755 33.9057C79.4047 33.9057 78.1221 32.477 78.1221 30.554C78.1221 28.6583 79.431 27.23 81.0015 27.23C81.4988 27.23 81.9699 27.3675 82.4409 27.697L79.0381 30.1696L80.6089 32.6696L86.891 28.1916C85.5297 25.3896 83.3835 23.9062 80.7657 23.9062C79.0118 23.9062 77.3889 24.6204 76.1587 25.9392C74.9022 27.2853 74.2217 29.0161 74.2217 30.9391C74.2217 32.8621 74.9025 34.5929 76.1587 35.939C77.3889 37.2577 79.0381 37.9992 80.7657 37.9992C83.8282 37.9992 86.4197 36.1315 87.807 32.6972L87.8073 32.6966Z" fill="#292D32"/>
<path d="M89.2832 37.7536H93.3404V30.1714C93.3404 28.8803 94.152 28.0286 95.2248 28.0286C96.2982 28.0286 97.1095 28.8803 97.1095 30.1714V37.7536H101.167V30.5835C101.167 26.2705 99.1249 23.8804 96.2982 23.8804C95.1988 23.8804 94.178 24.2649 93.3404 25.034V18.5508H89.2832V37.7533V37.7536Z" fill="#292D32"/>
<path d="M103.426 37.7521H107.562V24.1538H103.426V37.7521ZM103.112 20.4723C103.112 21.846 104.185 22.9723 105.494 22.9723C106.803 22.9723 107.876 21.8457 107.876 20.4723C107.876 19.0986 106.803 18 105.494 18C104.185 18 103.112 19.0986 103.112 20.4723Z" fill="#292D32"/>
<path d="M111.96 37.7546H120.075V33.7163H114.944L119.08 28.909C119.76 28.1395 120.101 27.3431 120.101 26.5739C120.101 24.953 119.002 24.1562 116.803 24.1562H109.918V28.0572H114.604L110.259 33.1394C109.552 33.9635 109.159 34.6504 109.159 35.4745C109.159 36.9305 110.128 37.7546 111.96 37.7546Z" fill="#292D32"/>
<path d="M121.739 37.7521H125.875V24.1538H121.739V37.7521ZM121.425 20.4723C121.425 21.846 122.498 22.9723 123.807 22.9723C125.116 22.9723 126.189 21.8457 126.189 20.4723C126.189 19.0986 125.115 18 123.807 18C122.498 18 121.425 19.0986 121.425 20.4723Z" fill="#292D32"/>
<path d="M128.205 37.752H132.21V29.9224C132.21 28.7962 132.917 27.9997 133.885 27.9997C134.854 27.9997 135.587 28.7968 135.587 29.9224V34.8667H139.592V29.9224C139.592 28.7962 140.325 27.9997 141.293 27.9997C142.262 27.9997 142.969 28.7962 142.969 29.9224V37.752H147V30.582C147 26.3512 144.618 23.8789 141.293 23.8789C139.984 23.8789 138.623 24.5105 137.576 25.6647C136.582 24.5108 135.247 23.8789 133.755 23.8789C130.613 23.8789 128.205 26.3789 128.205 30.582V37.752H128.205ZM135.587 35.5136V37.752H139.592V35.5136H135.587Z" fill="#292D32"/>
</svg>
