<svg width="153" height="50" viewBox="0 0 153 50" fill="none" xmlns="http://www.w3.org/2000/svg">
<path d="M1.41986 38.7674C0.949977 37.4546 0.59478 36.1075 0.357982 34.7417C0.120256 33.373 0 31.9866 0 30.5978C0 23.8054 2.79861 17.6557 7.32251 13.2045C11.8467 8.75302 18.0968 6 25.0002 6C31.9032 6 38.1536 8.75302 42.6775 13.2045C47.2017 17.6557 50 23.8057 50 30.5978C50 31.9939 49.8785 33.3876 49.6383 34.7627C49.3987 36.1357 49.0401 37.489 48.5656 38.8072L47.7649 38.5292C48.2231 37.256 48.5693 35.9484 48.8012 34.6219C49.0324 33.2975 49.1493 31.951 49.1493 30.5978C49.1493 24.0365 46.4465 18.0958 42.0762 13.7961C37.7724 9.5615 31.8512 6.91767 25.3028 6.83859V13.6885L26.2874 14.6572V16.2836C27.0528 16.3812 27.8482 16.5634 28.6136 16.8634C29.6109 17.2536 30.5572 17.8422 31.3211 18.699L31.3918 18.8821V20.9818H27.6652C27.4683 21.5697 27.144 22.0649 26.7409 22.4235C26.2815 22.832 25.7207 23.0663 25.126 23.0663C24.5225 23.0663 23.9553 22.8263 23.4934 22.4086C23.098 22.0512 22.7806 21.5615 22.5864 20.9818H18.572V18.8821L18.6295 18.7142C19.4456 17.6521 20.4926 17.0145 21.6095 16.6456C22.2903 16.4208 22.9954 16.297 23.6885 16.2377V14.5918L24.7358 13.6842V6.83859C18.1723 6.90764 12.2362 9.55329 7.92409 13.7964C3.55414 18.0961 0.851053 24.0365 0.851053 30.5981C0.851053 31.9446 0.96667 33.2839 1.19543 34.6015C1.42481 35.9219 1.76733 37.2231 2.22084 38.49L1.42017 38.7677L1.41986 38.7674ZM9.25894 31.5985C8.6552 30.9138 8.2156 30.2404 8.23508 28.9978L8.51763 29.0009C8.50094 30.0697 8.85985 30.6927 9.3693 31.2952C9.47317 31.0592 9.6095 30.856 9.77551 30.6823C9.73594 29.3902 9.32973 28.1589 8.09535 27.439C7.12806 29.396 7.20968 31.0774 9.14147 32.267C9.16002 32.0231 9.19958 31.8007 9.25894 31.5982V31.5985ZM8.2796 32.8653H9.13683C9.13188 32.7698 9.1291 32.6767 9.12941 32.5864C6.90147 31.2946 6.77627 29.382 7.90863 27.1829L7.97448 27.0551L8.10184 27.1229C9.45122 27.8399 9.95821 29.0836 10.0463 30.4448C10.6664 29.987 11.5654 29.8312 12.6548 29.8811L12.8115 29.8881L12.7887 30.0402C12.6913 30.6914 12.4702 31.3001 12.0405 31.8348C11.7271 32.2244 11.3039 32.5727 10.7385 32.8659H11.0303C11.0813 32.8659 11.1354 32.872 11.191 32.8833C11.3521 32.9158 11.5045 32.9958 11.6164 33.1056C11.741 33.2282 11.8211 33.3891 11.8211 33.5698C11.8211 33.6075 11.8164 33.6489 11.8075 33.6927L11.2699 36.2763C11.2591 36.3286 11.2448 36.3803 11.2269 36.4302H13.3853C13.7222 36.4302 14.0289 36.5658 14.2512 36.7845L14.2524 36.7857C14.4744 37.0044 14.6126 37.3062 14.6126 37.6377V38.1423C14.6126 38.4748 14.4744 38.7768 14.2524 38.9955C14.0289 39.2139 13.7222 39.3499 13.3853 39.3499H13.168L13.9424 43.2125C14.0255 43.6304 13.7294 44 13.2932 44C12.9046 44 12.5747 43.6998 12.4681 43.3445L11.2659 39.3502H8.39243L7.1902 43.3445C7.08355 43.6998 6.7537 44 6.36511 44C5.92861 44 5.63246 43.6304 5.71562 43.2125L6.49001 39.3499H5.89554C5.55765 39.3499 5.25068 39.2139 5.02841 38.9955C4.80645 38.7768 4.66827 38.4748 4.66827 38.1423V37.6377C4.66827 37.3062 4.80645 37.0044 5.02841 36.7857C5.25068 36.5658 5.55765 36.4302 5.89554 36.4302H8.04496C8.02703 36.3788 8.01281 36.3258 8.00199 36.272L7.50181 33.6884C7.49408 33.6473 7.49006 33.6087 7.49006 33.5728C7.49006 33.3909 7.57136 33.2279 7.6978 33.1038C7.81187 32.9919 7.96675 32.9116 8.12997 32.8808C8.18098 32.8711 8.23106 32.8659 8.27991 32.8659L8.2796 32.8653ZM9.88494 32.8653H10.0602C10.8745 32.5469 11.4377 32.1365 11.8189 31.662C12.1803 31.2128 12.3818 30.7012 12.4829 30.1528C11.5079 30.1266 10.7128 30.2805 10.1792 30.6951C9.64474 31.1097 9.36528 31.798 9.41907 32.844L9.58384 32.8577C9.91122 32.0386 10.1907 31.3795 11.2504 30.8843L11.3713 31.1358C10.4522 31.5653 10.1749 32.1466 9.88494 32.8653ZM10.57 36.9871C10.5446 36.9898 10.519 36.9911 10.4924 36.9911H8.77947C8.75319 36.9911 8.72722 36.9898 8.70187 36.9871H5.89492C5.71377 36.9871 5.54838 37.0604 5.42874 37.1781C5.3088 37.2955 5.23461 37.4583 5.23461 37.6368V38.1414C5.23461 38.3197 5.30942 38.4824 5.42874 38.5998C5.54838 38.7175 5.71377 38.7911 5.89492 38.7911H13.3847C13.5661 38.7911 13.7315 38.7181 13.8515 38.6004C13.9705 38.4821 14.0453 38.3197 14.0453 38.1411V37.6365C14.0453 37.458 13.9711 37.2952 13.8515 37.1772C13.7315 37.0598 13.5661 36.9865 13.3847 36.9865H10.57V36.9871ZM8.74392 36.4293H10.5283C10.5595 36.4223 10.5864 36.4064 10.6089 36.3842C10.6612 36.3328 10.6973 36.2535 10.7159 36.1643L11.2535 33.5807L11.2538 33.5689C11.2538 33.547 11.2386 33.5223 11.2152 33.4992C11.1793 33.4636 11.1295 33.4375 11.0779 33.4274C11.0649 33.4247 11.0488 33.4235 11.0303 33.4235H8.2796C8.26352 33.4235 8.24868 33.4247 8.23601 33.4271C8.18191 33.4369 8.13214 33.4627 8.09597 33.498C8.07186 33.5214 8.0564 33.5479 8.0564 33.5725L8.05702 33.5856L8.5572 36.1689C8.57389 36.2556 8.60913 36.3331 8.66014 36.3836C8.68333 36.4064 8.71146 36.4226 8.7433 36.4296L8.74392 36.4293ZM7.06686 39.3493L6.27114 43.3187C6.22817 43.5337 6.56729 43.4522 6.64674 43.1867L7.80198 39.3493H7.06686ZM12.5899 39.3493H11.8551L13.01 43.1867C13.0446 43.3016 13.1602 43.4412 13.2925 43.4412C13.3732 43.4345 13.4023 43.4005 13.3859 43.3187L12.5899 39.3493ZM7.47399 37.5176H11.8059C11.9691 37.5176 12.103 37.6493 12.103 37.8099V37.9687C12.103 38.1296 11.9691 38.261 11.8059 38.261H7.47399C7.31045 38.261 7.17691 38.1296 7.17691 37.9687V37.8099C7.17691 37.6493 7.31076 37.5176 7.47399 37.5176ZM25.7195 16.2258V14.8884L25.0091 14.1894L24.2548 14.8431V16.2024C24.4895 16.193 24.7213 16.1905 24.9491 16.1927C25.1986 16.1951 25.4564 16.2057 25.7195 16.2258ZM20.1164 18.9658C20.5115 18.6065 20.9492 18.2917 21.4343 18.0283C21.9184 17.7658 22.4504 17.5544 23.0365 17.4005L23.1806 17.9389C22.6421 18.0803 22.1524 18.275 21.7069 18.5168C21.2627 18.7577 20.8621 19.0461 20.4994 19.3755L20.1164 18.9658ZM27.0646 20.9815H23.1861C23.3506 21.3924 23.5889 21.7389 23.8758 21.9986C24.2338 22.322 24.6681 22.5078 25.1254 22.5078C25.577 22.5078 26.0067 22.3271 26.3613 22.0111C26.654 21.7507 26.8976 21.3991 27.0646 20.9815ZM21.7882 17.173C20.7981 17.5 19.8691 18.0575 19.138 18.9761V20.4236H30.824V18.9871C30.1368 18.2443 29.2934 17.7275 28.4044 17.3798C27.25 16.9281 26.0178 16.759 24.9442 16.7487C23.9237 16.7386 22.8204 16.832 21.7879 17.173H21.7882ZM19.7949 29.0702H29.5791C29.8508 29.0702 30.0975 29.1794 30.2762 29.3552C30.3658 29.4434 30.4385 29.5487 30.4886 29.6655C30.5386 29.5487 30.6113 29.4434 30.7009 29.3552C30.8793 29.1797 31.126 29.0702 31.3977 29.0702H41.1819C41.4536 29.0702 41.7003 29.1794 41.879 29.3552C42.0574 29.5307 42.1683 29.7738 42.1683 30.0408V32.9246L42.1687 32.9243L42.1699 32.9231C42.3269 32.7689 42.5436 32.6728 42.7817 32.6728H44.4278C44.6659 32.6728 44.8822 32.7686 45.0393 32.9231L45.0405 32.9243C45.1973 33.0788 45.2949 33.2921 45.2949 33.5263V40.2819C45.2949 40.5161 45.1976 40.7293 45.0405 40.8838L45.0393 40.885C44.8822 41.0392 44.6659 41.1353 44.4278 41.1353H42.7817C42.7282 41.1353 42.6759 41.1305 42.6252 41.1213H42.4444L42.9474 43.2454H44.2921V43.8035H42.543L40.0406 41.1217H21.1313L18.6289 43.8035H16.8795V43.2454H18.2242L18.7272 41.1213H18.4029C18.3522 41.1308 18.2999 41.1353 18.2465 41.1353H16.6003C16.3623 41.1353 16.1456 41.0395 15.9885 40.885L15.9876 40.8838C15.8306 40.7293 15.7332 40.5161 15.7332 40.2819V33.5263C15.7332 33.2921 15.8306 33.0788 15.9876 32.9243L15.9885 32.9231C16.1456 32.7689 16.3623 32.6728 16.6003 32.6728H18.2465C18.4607 32.6728 18.6573 32.7503 18.8091 32.8784V30.0405C18.8091 29.7735 18.9201 29.5304 19.0984 29.3549C19.2768 29.1794 19.5238 29.0699 19.7955 29.0699L19.7949 29.0702ZM41.8623 41.1207H40.8081L42.2209 42.6349L41.8623 41.1207ZM20.3625 41.1207H19.3083L18.95 42.6349L20.3625 41.1207ZM19.3757 36.0113H29.9986V30.0408C29.9986 29.928 29.951 29.8246 29.8749 29.7497C29.7989 29.6749 29.6941 29.6284 29.5791 29.6284H19.7949C19.6799 29.6284 19.5748 29.6749 19.4988 29.7497C19.4227 29.8246 19.3754 29.9277 19.3754 30.0408V36.0113H19.3757ZM30.9785 36.0113H41.6011V30.0408C41.6011 29.928 41.5538 29.8246 41.4777 29.7497C41.4017 29.6749 41.2969 29.6284 41.1819 29.6284H31.3977C31.283 29.6284 31.1779 29.6749 31.1019 29.7497C31.0258 29.8246 30.9785 29.9277 30.9785 30.0408V36.0113ZM41.6011 36.5692H30.9785V38.2013H41.6011V36.5692ZM29.9986 36.5692H19.3757V38.2013H29.9986V36.5692ZM41.9631 40.5629C41.9315 40.4747 41.9142 40.3801 41.9142 40.2815V38.7592H30.5655H30.4116H19.1133V40.2815C19.1133 40.3801 19.0963 40.4747 19.0647 40.5629H41.9634H41.9631ZM16.8046 40.5629H18.338C18.3837 40.5483 18.4251 40.5231 18.4585 40.4905C18.5126 40.437 18.5463 40.3628 18.5463 40.2815V33.526C18.5463 33.4448 18.5123 33.3705 18.4585 33.317C18.4041 33.2638 18.329 33.2306 18.2465 33.2306H16.6003C16.5178 33.2306 16.4423 33.2641 16.3879 33.317C16.3338 33.3705 16.3004 33.4448 16.3004 33.526V40.2815C16.3004 40.3628 16.3341 40.437 16.3879 40.4905C16.4423 40.5437 16.5178 40.5769 16.6003 40.5769H16.8046V40.5629ZM42.6898 40.5629H44.311V40.5769H44.4275C44.51 40.5769 44.5852 40.5434 44.6396 40.4905C44.6937 40.437 44.7274 40.3628 44.7274 40.2815V33.526C44.7274 33.4448 44.6934 33.3705 44.6396 33.317C44.5852 33.2638 44.51 33.2306 44.4275 33.2306H42.7814C42.6985 33.2306 42.6234 33.2641 42.569 33.317C42.5149 33.3705 42.4812 33.4448 42.4812 33.526V40.2815C42.4812 40.3628 42.5152 40.437 42.569 40.4905C42.6024 40.5231 42.6438 40.548 42.6898 40.5629Z" fill="#B08A3E"/>
<path d="M72.8578 29.056V24.5508C72.7007 24.5508 72.5436 24.5508 72.3865 24.5508C69.2192 24.5508 66.8372 25.0724 65.1883 26.1717C62.4921 27.9848 61 30.8418 61 34.1382C61 37.4349 62.4921 40.3196 65.1883 42.1327C66.8375 43.2313 69.2192 43.7536 72.3865 43.7536C72.5433 43.7536 72.7004 43.7536 72.8578 43.7536V39.2483C72.5172 39.276 72.177 39.276 71.8367 39.276C67.7795 39.276 65.659 37.4079 65.659 34.1388C65.659 30.8974 67.7792 29.0293 71.8367 29.0293C72.177 29.0293 72.5172 29.0293 72.8578 29.057V29.056Z" fill="#292D32"/>
<path d="M87.8083 38.6966L84.7194 37.131C83.8031 38.9441 82.4682 39.9057 80.9764 39.9057C79.4057 39.9057 78.1231 38.477 78.1231 36.554C78.1231 34.6583 79.432 33.23 81.0025 33.23C81.4998 33.23 81.9708 33.3675 82.4419 33.697L79.0391 36.1696L80.6098 38.6696L86.892 34.1916C85.5307 31.3896 83.3845 29.9062 80.7667 29.9062C79.0127 29.9062 77.3899 30.6204 76.1597 31.9392C74.9031 33.2853 74.2227 35.0161 74.2227 36.9391C74.2227 38.8621 74.9035 40.5929 76.1597 41.939C77.3899 43.2577 79.0391 43.9992 80.7667 43.9992C83.8292 43.9992 86.4207 42.1315 87.808 38.6972L87.8083 38.6966Z" fill="#292D32"/>
<path d="M89.2832 43.7536H93.3404V36.1714C93.3404 34.8803 94.152 34.0286 95.2248 34.0286C96.2982 34.0286 97.1095 34.8803 97.1095 36.1714V43.7536H101.167V36.5835C101.167 32.2705 99.1249 29.8804 96.2982 29.8804C95.1988 29.8804 94.178 30.2649 93.3404 31.034V24.5508H89.2832V43.7533V43.7536Z" fill="#292D32"/>
<path d="M103.427 43.7521H107.563V30.1538H103.427V43.7521ZM103.113 26.4723C103.113 27.846 104.186 28.9723 105.495 28.9723C106.804 28.9723 107.877 27.8457 107.877 26.4723C107.877 25.0986 106.804 24 105.495 24C104.186 24 103.113 25.0986 103.113 26.4723Z" fill="#292D32"/>
<path d="M111.959 43.7546H120.074V39.7163H114.943L119.079 34.909C119.759 34.1395 120.1 33.3431 120.1 32.5739C120.1 30.953 119.001 30.1562 116.802 30.1562H109.917V34.0572H114.603L110.258 39.1394C109.551 39.9635 109.158 40.6504 109.158 41.4745C109.158 42.9305 110.127 43.7546 111.959 43.7546Z" fill="#292D32"/>
<path d="M121.738 43.7521H125.874V30.1538H121.738V43.7521ZM121.424 26.4723C121.424 27.846 122.497 28.9723 123.806 28.9723C125.115 28.9723 126.188 27.8457 126.188 26.4723C126.188 25.0986 125.114 24 123.806 24C122.497 24 121.424 25.0986 121.424 26.4723Z" fill="#292D32"/>
<path d="M128.205 43.752H132.21V35.9224C132.21 34.7962 132.917 33.9997 133.885 33.9997C134.854 33.9997 135.587 34.7968 135.587 35.9224V40.8667H139.592V35.9224C139.592 34.7962 140.325 33.9997 141.293 33.9997C142.262 33.9997 142.969 34.7962 142.969 35.9224V43.752H147V36.582C147 32.3512 144.618 29.8789 141.293 29.8789C139.984 29.8789 138.623 30.5105 137.576 31.6647C136.582 30.5108 135.247 29.8789 133.755 29.8789C130.613 29.8789 128.205 32.3789 128.205 36.582V43.752H128.205ZM135.587 41.5136V43.752H139.592V41.5136H135.587Z" fill="#292D32"/>
</svg>
