<svg width="20" height="20" viewBox="0 0 20 20" fill="none" xmlns="http://www.w3.org/2000/svg">
<path fill-rule="evenodd" clip-rule="evenodd" d="M15.1034 5.32183C15.3963 5.02894 15.3963 4.55407 15.1034 4.26117C14.8105 3.96828 14.3357 3.96828 14.0428 4.26117L9.68304 8.62091L5.3233 4.26117C5.03041 3.96828 4.55553 3.96828 4.26264 4.26117C3.96975 4.55407 3.96975 5.02894 4.26264 5.32183L8.62238 9.68157L4.26264 14.0413C3.96975 14.3342 3.96975 14.8091 4.26264 15.102C4.55553 15.3949 5.03041 15.3949 5.3233 15.102L9.68304 10.7422L14.0428 15.102C14.3357 15.3949 14.8105 15.3949 15.1034 15.102C15.3963 14.8091 15.3963 14.3342 15.1034 14.0413L10.7437 9.68157L15.1034 5.32183Z" fill="#191C1F"/>
</svg>
