<svg width="24" height="24" viewBox="0 0 24 24" fill="none" xmlns="http://www.w3.org/2000/svg">
<path d="M14.3206 19.0678C14.3206 19.6778 13.9205 20.4778 13.4105 20.7878L12.0005 21.6978C10.6905 22.5078 8.87054 21.5978 8.87054 19.9778V14.6278C8.87054 13.9178 8.47055 13.0078 8.06055 12.5078L4.22052 8.4678C3.71052 7.9578 3.31055 7.05781 3.31055 6.44781V4.12781C3.31055 2.91781 4.22057 2.00781 5.33057 2.00781H18.6705C19.7805 2.00781 20.6906 2.9178 20.6906 4.0278V6.2478C20.6906 7.0578 20.1805 8.06781 19.6805 8.56781" stroke="#292D32" stroke-width="1.5" stroke-miterlimit="10" stroke-linecap="round" stroke-linejoin="round"/>
<path d="M16.0692 16.5211C17.8365 16.5211 19.2692 15.0884 19.2692 13.3211C19.2692 11.5538 17.8365 10.1211 16.0692 10.1211C14.3018 10.1211 12.8691 11.5538 12.8691 13.3211C12.8691 15.0884 14.3018 16.5211 16.0692 16.5211Z" stroke="#292D32" stroke-width="1.5" stroke-linecap="round" stroke-linejoin="round"/>
<path d="M19.8691 17.1211L18.8691 16.1211" stroke="#292D32" stroke-width="1.5" stroke-linecap="round" stroke-linejoin="round"/>
</svg>
