<svg width="108" height="10" viewBox="0 0 108 10" fill="none" xmlns="http://www.w3.org/2000/svg">
<mask id="path-1-outside-1_1213_19143" maskUnits="userSpaceOnUse" x="0" y="0" width="108" height="10" fill="black">
<rect fill="white" width="108" height="10"/>
<path fill-rule="evenodd" clip-rule="evenodd" d="M80.9153 1.03203C66.0127 1.12297 61.7518 1.18214 53.4832 1.41308C44.9143 1.65241 38.7819 1.89231 29.0519 2.36886C26.7963 2.47933 24.3811 2.58417 21.5497 2.69449C11.1487 3.09974 9.12468 3.20773 5.7623 3.53666C4.09634 3.69967 2.65558 3.81248 1.84808 3.84323C1.13015 3.87053 1 3.88773 1 3.95524C1 4.01489 2.14824 4.06716 2.77627 4.03607C3.00134 4.02497 3.61111 3.99774 4.13138 3.97565C4.65164 3.95351 5.79655 3.89412 6.67562 3.84365C8.74566 3.72475 9.73954 3.68726 13.2972 3.59387C19.2779 3.43687 23.7959 3.286 29.3455 3.05797C31.3907 2.97391 34.1061 2.86233 35.3799 2.80999C45.0405 2.41293 56.8409 2.05888 64.0516 1.94978C72.8019 1.81733 99.9667 1.70023 99.5079 1.79688C99.3261 1.83521 96.2177 2.1203 94.3542 2.26956C92.6425 2.40669 89.7827 2.60447 86.2648 2.82902C84.5963 2.93555 82.3065 3.08297 81.1763 3.15665C76.9303 3.43346 75.5318 3.51931 73.1195 3.65138C62.0063 4.25974 54.6654 4.78986 44.4478 5.72182C38.3746 6.27576 33.3967 6.91168 27.8415 7.8433C24.6831 8.37296 24.3754 8.46704 24.6863 8.80804C24.8886 9.0299 26.4822 9.05866 29.6964 8.89841C35.5704 8.60558 41.0903 8.37847 46.4376 8.2096C49.7917 8.10368 50.2359 8.08592 53.6463 7.92149C54.92 7.86011 57.1218 7.77035 58.539 7.7221L61.1159 7.63437L57.691 7.5998C52.501 7.54737 46.9337 7.55055 45.1002 7.60699C39.03 7.79386 35.7284 7.93769 30.3355 8.25011C29.05 8.32459 27.9656 8.37912 27.9255 8.37131C27.5393 8.29572 36.1837 7.15361 40.3075 6.73538C49.6166 5.7912 59.203 5.08674 73.935 4.26414C75.2805 4.18901 77.9813 4.02466 79.9368 3.89895C81.8923 3.77319 84.9747 3.57522 86.7867 3.45893C93.7608 3.0114 95.8388 2.84472 102.541 2.19509C106.834 1.779 106.857 1.77544 106.974 1.5018C107.103 1.20094 106.759 1.06443 105.774 1.02541C104.838 0.988301 87.3138 0.992972 80.9153 1.03203Z"/>
</mask>
<path fill-rule="evenodd" clip-rule="evenodd" d="M80.9153 1.03203C66.0127 1.12297 61.7518 1.18214 53.4832 1.41308C44.9143 1.65241 38.7819 1.89231 29.0519 2.36886C26.7963 2.47933 24.3811 2.58417 21.5497 2.69449C11.1487 3.09974 9.12468 3.20773 5.7623 3.53666C4.09634 3.69967 2.65558 3.81248 1.84808 3.84323C1.13015 3.87053 1 3.88773 1 3.95524C1 4.01489 2.14824 4.06716 2.77627 4.03607C3.00134 4.02497 3.61111 3.99774 4.13138 3.97565C4.65164 3.95351 5.79655 3.89412 6.67562 3.84365C8.74566 3.72475 9.73954 3.68726 13.2972 3.59387C19.2779 3.43687 23.7959 3.286 29.3455 3.05797C31.3907 2.97391 34.1061 2.86233 35.3799 2.80999C45.0405 2.41293 56.8409 2.05888 64.0516 1.94978C72.8019 1.81733 99.9667 1.70023 99.5079 1.79688C99.3261 1.83521 96.2177 2.1203 94.3542 2.26956C92.6425 2.40669 89.7827 2.60447 86.2648 2.82902C84.5963 2.93555 82.3065 3.08297 81.1763 3.15665C76.9303 3.43346 75.5318 3.51931 73.1195 3.65138C62.0063 4.25974 54.6654 4.78986 44.4478 5.72182C38.3746 6.27576 33.3967 6.91168 27.8415 7.8433C24.6831 8.37296 24.3754 8.46704 24.6863 8.80804C24.8886 9.0299 26.4822 9.05866 29.6964 8.89841C35.5704 8.60558 41.0903 8.37847 46.4376 8.2096C49.7917 8.10368 50.2359 8.08592 53.6463 7.92149C54.92 7.86011 57.1218 7.77035 58.539 7.7221L61.1159 7.63437L57.691 7.5998C52.501 7.54737 46.9337 7.55055 45.1002 7.60699C39.03 7.79386 35.7284 7.93769 30.3355 8.25011C29.05 8.32459 27.9656 8.37912 27.9255 8.37131C27.5393 8.29572 36.1837 7.15361 40.3075 6.73538C49.6166 5.7912 59.203 5.08674 73.935 4.26414C75.2805 4.18901 77.9813 4.02466 79.9368 3.89895C81.8923 3.77319 84.9747 3.57522 86.7867 3.45893C93.7608 3.0114 95.8388 2.84472 102.541 2.19509C106.834 1.779 106.857 1.77544 106.974 1.5018C107.103 1.20094 106.759 1.06443 105.774 1.02541C104.838 0.988301 87.3138 0.992972 80.9153 1.03203Z" fill="url(#paint0_linear_1213_19143)"/>
<path d="M80.9153 1.03203L80.9172 1.33202L80.9153 1.03203ZM53.4832 1.41308L53.4916 1.71296L53.4832 1.41308ZM29.0519 2.36886L29.0666 2.6685L29.0519 2.36886ZM21.5497 2.69449L21.5613 2.99427L21.5497 2.69449ZM5.7623 3.53666L5.73309 3.23809L5.73309 3.23809L5.7623 3.53666ZM1.84808 3.84323L1.85948 4.14301L1.8595 4.14301L1.84808 3.84323ZM2.77627 4.03607L2.76149 3.73644L2.76144 3.73644L2.77627 4.03607ZM4.13138 3.97565L4.14411 4.27538L4.14413 4.27537L4.13138 3.97565ZM6.67562 3.84365L6.69281 4.14316L6.69282 4.14316L6.67562 3.84365ZM13.2972 3.59387L13.2893 3.29397L13.2972 3.59387ZM29.3455 3.05797L29.3578 3.35771H29.3578L29.3455 3.05797ZM35.3799 2.80999L35.3922 3.10973H35.3922L35.3799 2.80999ZM64.0516 1.94978L64.0561 2.24975L64.0516 1.94978ZM99.5079 1.79688L99.446 1.50333L99.446 1.50334L99.5079 1.79688ZM94.3542 2.26956L94.3302 1.97052V1.97052L94.3542 2.26956ZM86.2648 2.82902L86.2457 2.52963L86.2457 2.52963L86.2648 2.82902ZM81.1763 3.15665L81.1568 2.85728V2.85728L81.1763 3.15665ZM73.1195 3.65138L73.1359 3.95094H73.1359L73.1195 3.65138ZM44.4478 5.72182L44.4751 6.02058H44.4751L44.4478 5.72182ZM27.8415 7.8433L27.8911 8.13917L27.8415 7.8433ZM24.6863 8.80804L24.4646 9.01014L24.4646 9.01017L24.6863 8.80804ZM29.6964 8.89841L29.6815 8.59878H29.6815L29.6964 8.89841ZM46.4376 8.2096L46.4281 7.90975L46.4376 8.2096ZM53.6463 7.92149L53.6318 7.62184H53.6318L53.6463 7.92149ZM58.539 7.7221L58.5493 8.02193L58.539 7.7221ZM61.1159 7.63437L61.1261 7.9342C61.2891 7.92865 61.4178 7.79388 61.4159 7.63078C61.4139 7.46769 61.282 7.33603 61.1189 7.33439L61.1159 7.63437ZM57.691 7.5998L57.6879 7.89978L57.691 7.5998ZM45.1002 7.60699L45.1095 7.90685L45.1002 7.60699ZM30.3355 8.25011L30.3181 7.95062L30.3181 7.95062L30.3355 8.25011ZM27.9255 8.37131L27.8679 8.66572L27.8681 8.66576L27.9255 8.37131ZM40.3075 6.73538L40.3378 7.03385L40.3378 7.03385L40.3075 6.73538ZM73.935 4.26414L73.9183 3.96461L73.935 4.26414ZM79.9368 3.89895L79.956 4.19833V4.19833L79.9368 3.89895ZM86.7867 3.45893L86.7675 3.15954L86.7675 3.15954L86.7867 3.45893ZM102.541 2.19509L102.57 2.49369V2.49369L102.541 2.19509ZM106.974 1.5018L106.698 1.3838L106.698 1.38388L106.974 1.5018ZM105.774 1.02541L105.762 1.32517L105.762 1.32517L105.774 1.02541ZM80.9135 0.732035C66.0101 0.822984 61.7466 0.882162 53.4748 1.11319L53.4916 1.71296C61.7569 1.48211 66.0153 1.42296 80.9172 1.33202L80.9135 0.732035ZM53.4748 1.11319C44.9036 1.35259 38.7691 1.59258 29.0372 2.06922L29.0666 2.6685C38.7948 2.19204 44.925 1.95222 53.4916 1.71296L53.4748 1.11319ZM29.0372 2.06922C26.7828 2.17963 24.3686 2.28443 21.538 2.39472L21.5613 2.99427C24.3935 2.88392 26.8097 2.77903 29.0666 2.6685L29.0372 2.06922ZM21.538 2.39472C11.1386 2.79991 9.10574 2.90815 5.73309 3.23809L5.79151 3.83524C9.14363 3.50731 11.1587 3.39958 21.5613 2.99427L21.538 2.39472ZM5.73309 3.23809C4.06821 3.40099 2.63481 3.51306 1.83667 3.54345L1.8595 4.14301C2.67636 4.11191 4.12448 3.99835 5.79152 3.83524L5.73309 3.23809ZM1.83668 3.54345C1.48246 3.55692 1.25472 3.56835 1.11553 3.58674C1.0518 3.59516 0.970159 3.60893 0.899024 3.64395C0.859255 3.66354 0.805331 3.69801 0.762414 3.75843C0.716003 3.82377 0.7 3.89456 0.7 3.95524H1.3C1.3 3.99903 1.28806 4.05451 1.25158 4.10588C1.21858 4.15234 1.18043 4.17418 1.16408 4.18223C1.13979 4.1942 1.13555 4.1893 1.1941 4.18157C1.29947 4.16766 1.49577 4.15685 1.85948 4.14301L1.83668 3.54345ZM0.7 3.95524C0.7 4.0859 0.778709 4.16384 0.809953 4.19018C0.84497 4.2197 0.8792 4.23538 0.89535 4.24226C0.930388 4.25721 0.965132 4.26556 0.986956 4.27029C1.03526 4.28077 1.09507 4.28892 1.15672 4.29564C1.28317 4.30943 1.45341 4.32093 1.63898 4.32938C2.00988 4.34626 2.4642 4.35189 2.79111 4.3357L2.76144 3.73644C2.46031 3.75135 2.02649 3.74639 1.66626 3.73C1.48627 3.7218 1.3302 3.711 1.22173 3.69917C1.16592 3.69309 1.13112 3.68761 1.11417 3.68393C1.10337 3.68159 1.11284 3.68273 1.13075 3.69037C1.13833 3.6936 1.16604 3.70561 1.19667 3.73143C1.22353 3.75407 1.3 3.8283 1.3 3.95524H0.7ZM2.79106 4.33571C3.01502 4.32466 3.62391 4.29747 4.14411 4.27538L4.11865 3.67592C3.59831 3.69801 2.98766 3.72528 2.76149 3.73644L2.79106 4.33571ZM4.14413 4.27537C4.66654 4.25315 5.81312 4.19366 6.69281 4.14316L6.65842 3.54414C5.77998 3.59458 4.63675 3.65387 4.11863 3.67592L4.14413 4.27537ZM6.69282 4.14316C8.75833 4.02452 9.74867 3.98713 13.305 3.89377L13.2893 3.29397C9.73042 3.3874 8.73298 3.42499 6.65842 3.54414L6.69282 4.14316ZM13.305 3.89377C19.2872 3.73673 23.8066 3.58581 29.3578 3.35771L29.3332 2.75822C23.7852 2.98619 19.2687 3.13701 13.2893 3.29397L13.305 3.89377ZM29.3578 3.35771C31.403 3.27366 34.1185 3.16208 35.3922 3.10973L35.3676 2.51024C34.0938 2.56259 31.3783 2.67417 29.3332 2.75822L29.3578 3.35771ZM35.3922 3.10973C45.051 2.71275 56.8487 2.35879 64.0561 2.24975L64.047 1.64982C56.833 1.75896 45.0299 2.11311 35.3676 2.51024L35.3922 3.10973ZM64.0561 2.24975C68.4295 2.18355 77.4068 2.12117 85.2344 2.08742C89.148 2.07054 92.7736 2.06083 95.3918 2.06137C96.7011 2.06164 97.7578 2.06448 98.4726 2.07026C98.8303 2.07315 99.1007 2.07677 99.2739 2.08112C99.3617 2.08333 99.4198 2.08562 99.4509 2.08775C99.4745 2.08935 99.4632 2.08971 99.4424 2.08494C99.4386 2.08409 99.4107 2.0781 99.3779 2.06159C99.3583 2.05072 99.3089 2.0135 99.2821 1.98505C99.2458 1.9295 99.2138 1.7846 99.228 1.70284C99.253 1.64613 99.3147 1.57025 99.3429 1.54815C99.3606 1.53691 99.3911 1.52124 99.4031 1.51624C99.4248 1.50775 99.4422 1.50414 99.446 1.50333L99.5697 2.09044C99.5772 2.08887 99.5972 2.08451 99.6209 2.07528C99.6339 2.06991 99.6651 2.05387 99.6833 2.04226C99.7121 2.01979 99.7741 1.94355 99.7992 1.88648C99.8135 1.80435 99.7814 1.65909 99.7449 1.60318C99.7177 1.57436 99.6679 1.53678 99.6475 1.52555C99.6132 1.50833 99.5831 1.50163 99.5763 1.50007C99.5432 1.49249 99.5065 1.49014 99.4918 1.48914C99.4465 1.48605 99.377 1.48352 99.289 1.48131C99.1104 1.47682 98.8356 1.47318 98.4774 1.47028C97.7602 1.46448 96.7016 1.46165 95.392 1.46137C92.7724 1.46083 89.1459 1.47055 85.2318 1.48742C77.4042 1.52117 68.424 1.58356 64.047 1.64982L64.0561 2.24975ZM99.446 1.50334C99.4485 1.5028 99.4379 1.50478 99.4026 1.50927C99.3717 1.51321 99.3299 1.51811 99.2776 1.5239C99.1732 1.53548 99.0309 1.55021 98.8583 1.56739C98.5133 1.60174 98.0503 1.64555 97.5343 1.69288C96.5022 1.78753 95.2605 1.89601 94.3302 1.97052L94.3781 2.56861C95.3113 2.49385 96.5556 2.38516 97.5891 2.29037C98.1058 2.24297 98.5705 2.199 98.9177 2.16444C99.0912 2.14718 99.2361 2.13219 99.3437 2.12025C99.4423 2.10933 99.5291 2.09902 99.5698 2.09043L99.446 1.50334ZM94.3302 1.97052C92.621 2.10744 89.7633 2.3051 86.2457 2.52963L86.2839 3.12841C89.8022 2.90384 92.6639 2.70593 94.3781 2.56861L94.3302 1.97052ZM86.2457 2.52963C84.5771 2.63616 82.2872 2.7836 81.1568 2.85728L81.1958 3.45601C82.3259 3.38235 84.6155 3.23493 86.2839 3.12841L86.2457 2.52963ZM81.1568 2.85728C76.9112 3.13407 75.5139 3.21985 73.1031 3.35183L73.1359 3.95094C75.5498 3.81878 76.9495 3.73285 81.1958 3.45601L81.1568 2.85728ZM73.1031 3.35183C61.9865 3.96037 54.642 4.49074 44.4206 5.42306L44.4751 6.02058C54.6888 5.08897 62.026 4.55911 73.1359 3.95094L73.1031 3.35183ZM44.4206 5.42306C38.3405 5.97762 33.3551 6.61447 27.7919 7.54743L27.8911 8.13917C33.4383 7.20889 38.4087 6.57389 44.4751 6.02058L44.4206 5.42306ZM27.7919 7.54743C26.2233 7.81049 25.3318 7.96992 24.8752 8.10953C24.7588 8.1451 24.6563 8.1835 24.5728 8.22853C24.4943 8.27089 24.3971 8.33761 24.3389 8.44741C24.2703 8.5768 24.2849 8.70727 24.3263 8.80622C24.362 8.89159 24.4201 8.9614 24.4646 9.01014L24.908 8.60593C24.8747 8.56943 24.8744 8.56171 24.8798 8.57459C24.8909 8.60106 24.9031 8.66409 24.869 8.72844C24.8453 8.77319 24.8194 8.77724 24.8576 8.75665C24.8908 8.73874 24.9506 8.71391 25.0506 8.68331C25.4598 8.55821 26.3014 8.40577 27.8911 8.13917L27.7919 7.54743ZM24.4646 9.01017C24.5455 9.09896 24.6569 9.143 24.738 9.16845C24.8296 9.19716 24.9392 9.21866 25.0615 9.23549C25.3071 9.26929 25.6395 9.28895 26.0564 9.29647C26.8924 9.31155 28.1026 9.27824 29.7113 9.19803L29.6815 8.59878C28.0759 8.67883 26.8822 8.71127 26.0673 8.69657C25.6587 8.6892 25.3539 8.67008 25.1433 8.64109C25.0376 8.62654 24.9644 8.61064 24.9176 8.59594C24.8603 8.57797 24.8775 8.57258 24.9079 8.60591L24.4646 9.01017ZM29.7113 9.19803C35.5837 8.90529 41.1018 8.67826 46.447 8.50945L46.4281 7.90975C41.0788 8.07868 35.5571 8.30587 29.6815 8.59878L29.7113 9.19803ZM46.447 8.50945C49.8028 8.40348 50.2488 8.38565 53.6607 8.22114L53.6318 7.62184C50.2231 7.78619 49.7805 7.80389 46.4281 7.90975L46.447 8.50945ZM53.6607 8.22114C54.9329 8.15983 57.1332 8.07013 58.5493 8.02193L58.5288 7.42228C57.1103 7.47057 54.9071 7.56038 53.6318 7.62184L53.6607 8.22114ZM58.5493 8.02193L61.1261 7.9342L61.1057 7.33455L58.5288 7.42228L58.5493 8.02193ZM61.1189 7.33439L57.694 7.29981L57.6879 7.89978L61.1129 7.93436L61.1189 7.33439ZM57.694 7.29981C52.5048 7.2474 46.9315 7.25048 45.091 7.30714L45.1095 7.90685C46.9359 7.85063 52.4972 7.84735 57.6879 7.89978L57.694 7.29981ZM45.091 7.30714C39.0184 7.49408 35.7141 7.63801 30.3181 7.95062L30.3528 8.54961C35.7427 8.23736 39.0417 8.09365 45.1095 7.90685L45.091 7.30714ZM30.3181 7.95062C29.6759 7.98782 29.0842 8.02003 28.6484 8.04195C28.4304 8.05291 28.252 8.06127 28.126 8.06639C28.0629 8.06896 28.0141 8.07066 27.9805 8.07149C27.9634 8.07191 27.9521 8.07206 27.9454 8.07206C27.9419 8.07205 27.9417 8.072 27.9437 8.07208C27.9446 8.07211 27.9478 8.07224 27.9524 8.07261C27.9552 8.07284 27.9673 8.0738 27.983 8.07686L27.8681 8.66576C27.8951 8.67103 27.9191 8.67157 27.921 8.67165C27.9294 8.67197 27.9378 8.67205 27.9447 8.67206C27.959 8.67207 27.9763 8.67178 27.9953 8.67131C28.0337 8.67036 28.0862 8.66851 28.1504 8.6659C28.2792 8.66066 28.4598 8.65219 28.6785 8.64119C29.1163 8.61918 29.7095 8.58688 30.3528 8.54961L30.3181 7.95062ZM27.9832 8.0769C27.9893 8.0781 28.0043 8.08127 28.0234 8.08842C28.0372 8.09358 28.0832 8.11146 28.1273 8.15602C28.1836 8.21297 28.2334 8.314 28.2049 8.43373C28.1832 8.52487 28.1265 8.57543 28.1099 8.58955C28.0874 8.6087 28.0676 8.61948 28.0598 8.62352C28.0504 8.62846 28.0433 8.63138 28.0404 8.63251C28.0349 8.63471 28.0338 8.6348 28.0399 8.63299C28.0674 8.62495 28.1294 8.61092 28.2334 8.59123C28.4351 8.55304 28.7526 8.50128 29.1623 8.43924C29.9801 8.31542 31.1512 8.15278 32.4646 7.97925C35.0916 7.63216 38.2802 7.24252 40.3378 7.03385L40.2772 6.43691C38.211 6.64647 35.0155 7.037 32.386 7.38442C31.0711 7.55815 29.8957 7.72135 29.0725 7.846C28.6617 7.9082 28.335 7.96133 28.1217 8.00171C28.0182 8.0213 27.9301 8.03997 27.8713 8.05716C27.856 8.06166 27.8372 8.0676 27.8183 8.07516C27.8081 8.0792 27.7636 8.0964 27.7209 8.13276C27.7017 8.14908 27.6434 8.20171 27.6212 8.29479C27.5923 8.41647 27.6427 8.51932 27.7007 8.57797C27.7465 8.62422 27.7952 8.64367 27.8129 8.65027C27.8358 8.65886 27.8557 8.66334 27.8679 8.66572L27.9832 8.0769ZM40.3378 7.03385C49.6405 6.09031 59.222 5.38615 73.9517 4.56367L73.9183 3.96461C59.184 4.78733 49.5926 5.49209 40.2772 6.43691L40.3378 7.03385ZM73.9517 4.56367C75.2983 4.48848 78.0001 4.32407 79.956 4.19833L79.9175 3.59956C77.9626 3.72525 75.2626 3.88954 73.9183 3.96461L73.9517 4.56367ZM79.956 4.19833C81.9115 4.07258 84.9939 3.8746 86.8059 3.75831L86.7675 3.15954C84.9555 3.27584 81.873 3.47381 79.9175 3.59956L79.956 4.19833ZM86.8059 3.75831C93.7832 3.31059 95.8643 3.14364 102.57 2.49369L102.512 1.89648C95.8132 2.54579 93.7385 2.71222 86.7675 3.15954L86.8059 3.75831ZM102.57 2.49369C104.71 2.28627 105.802 2.18029 106.37 2.09142C106.646 2.0483 106.841 2.00389 106.976 1.93224C107.054 1.89123 107.117 1.83922 107.167 1.77242C107.211 1.71259 107.237 1.65041 107.25 1.61972L106.698 1.38388C106.682 1.4216 106.681 1.41939 106.686 1.41376C106.695 1.40116 106.704 1.39757 106.696 1.40187C106.66 1.42085 106.559 1.45464 106.277 1.49863C105.732 1.58398 104.665 1.68781 102.512 1.89648L102.57 2.49369ZM107.25 1.6198C107.304 1.49272 107.33 1.32728 107.244 1.16541C107.166 1.01774 107.026 0.935826 106.902 0.886568C106.656 0.788839 106.276 0.745063 105.786 0.725641L105.762 1.32517C106.257 1.34477 106.541 1.38876 106.681 1.44426C106.75 1.47161 106.734 1.48267 106.714 1.44644C106.688 1.396 106.708 1.36045 106.698 1.3838L107.25 1.6198ZM105.786 0.725642C104.841 0.688186 87.3072 0.693006 80.9135 0.732035L80.9172 1.33202C87.3204 1.29294 104.835 1.28842 105.762 1.32517L105.786 0.725642Z" fill="url(#paint1_linear_1213_19143)" mask="url(#path-1-outside-1_1213_19143)"/>
<defs>
<linearGradient id="paint0_linear_1213_19143" x1="-9.5" y1="5" x2="131" y2="4.99998" gradientUnits="userSpaceOnUse">
<stop offset="0.160819" stop-color="#A99A61"/>
<stop offset="0.374365" stop-color="#196D79"/>
<stop offset="0.681662" stop-color="#254732"/>
<stop offset="0.916041" stop-color="#922C07"/>
</linearGradient>
<linearGradient id="paint1_linear_1213_19143" x1="7.5" y1="7.50001" x2="110" y2="1.00001" gradientUnits="userSpaceOnUse">
<stop stop-color="#A99A61"/>
<stop offset="0.379573" stop-color="#1A6C76"/>
<stop offset="0.749371" stop-color="#254732"/>
<stop offset="1" stop-color="#922C07"/>
</linearGradient>
</defs>
</svg>
