<svg width="24" height="24" viewBox="0 0 24 24" fill="none" xmlns="http://www.w3.org/2000/svg">
<path d="M20.3077 17.2763C20.3077 17.5763 20.241 17.8846 20.0993 18.1846C19.9577 18.4846 19.7744 18.768 19.5327 19.0346C19.1244 19.4846 18.6743 19.8096 18.166 20.018C17.666 20.2263 17.1244 20.3346 16.541 20.3346C15.691 20.3346 14.7827 20.1346 13.8243 19.7263C12.866 19.318 11.9077 18.768 10.9577 18.0763C9.99935 17.3763 9.09102 16.6013 8.22435 15.743C7.36602 14.8763 6.59102 13.968 5.89935 13.018C5.21602 12.068 4.66602 11.118 4.26602 10.1763C3.86602 9.2263 3.66602 8.31797 3.66602 7.4513C3.66602 6.88464 3.76602 6.34297 3.96602 5.84297C4.16602 5.33464 4.48268 4.86797 4.92435 4.4513C5.45768 3.9263 6.04102 3.66797 6.65768 3.66797C6.89102 3.66797 7.12435 3.71797 7.33268 3.81797C7.54935 3.91797 7.74102 4.06797 7.89102 4.28464L9.82435 7.00964C9.97435 7.21797 10.0827 7.40964 10.1577 7.59297C10.2327 7.76797 10.2743 7.94297 10.2743 8.1013C10.2743 8.3013 10.216 8.5013 10.0993 8.69297C9.99102 8.88464 9.83268 9.08464 9.63268 9.28464L8.99935 9.94297C8.90768 10.0346 8.86602 10.143 8.86602 10.2763C8.86602 10.343 8.87435 10.4013 8.89102 10.468C8.91602 10.5346 8.94102 10.5846 8.95768 10.6346C9.10768 10.9096 9.36602 11.268 9.73268 11.7013C10.1077 12.1346 10.5077 12.5763 10.941 13.018C11.391 13.4596 11.8243 13.868 12.266 14.243C12.6993 14.6096 13.0577 14.8596 13.341 15.0096C13.3827 15.0263 13.4327 15.0513 13.491 15.0763C13.5577 15.1013 13.6243 15.1096 13.6993 15.1096C13.841 15.1096 13.9493 15.0596 14.041 14.968L14.6743 14.343C14.8827 14.1346 15.0827 13.9763 15.2743 13.8763C15.466 13.7596 15.6577 13.7013 15.866 13.7013C16.0243 13.7013 16.191 13.7346 16.3743 13.8096C16.5577 13.8846 16.7494 13.993 16.9577 14.1346L19.716 16.093C19.9327 16.243 20.0827 16.418 20.1743 16.6263C20.2577 16.8346 20.3077 17.043 20.3077 17.2763Z" stroke="#292D32" stroke-width="1.5" stroke-miterlimit="10"/>
</svg>
