<svg width="12" height="13" viewBox="0 0 12 13" fill="none" xmlns="http://www.w3.org/2000/svg">
<path fill-rule="evenodd" clip-rule="evenodd" d="M11.5474 4.56383V4.56623C11.8474 5.28863 12 6.05629 12 6.84863C12 10.1562 9.30753 12.8486 6 12.8486C2.69247 12.8486 0 10.1562 0 6.84863C0 3.54109 2.69247 0.848633 6 0.848633C6.625 0.848633 7.24254 0.946008 7.83049 1.13629C7.83292 1.13629 7.83292 1.13869 7.83292 1.13869H7.84044C7.84884 1.14156 7.85565 1.14668 7.86269 1.15194L7.86932 1.15683L7.87216 1.15879L7.87536 1.16084L7.87707 1.16184L7.88056 1.16372C7.89323 1.17127 7.90832 1.17367 7.92069 1.18361C7.92069 1.18361 7.92069 1.18442 7.92117 1.1851C7.92146 1.18559 7.92205 1.18601 7.92306 1.18601C7.93655 1.19975 7.94626 1.21351 7.95727 1.22909L7.96046 1.23366C7.96194 1.2356 7.96348 1.23744 7.96508 1.23924L7.96857 1.24312C7.97171 1.24657 7.97485 1.25001 7.97757 1.25385C7.9797 1.25678 7.98159 1.25994 7.98307 1.26349C7.9871 1.27052 7.9897 1.27819 7.99166 1.28619L7.99266 1.29066L7.99379 1.29612L7.99544 1.306L7.99775 1.31232L8.00024 1.31885L8.00041 1.31934C8.00456 1.33014 8.00882 1.34131 8.01054 1.35366C8.01054 1.35775 8.01 1.36191 8.00947 1.36621V1.36819C8.00882 1.3738 8.00811 1.37973 8.00811 1.38623C8.00811 1.40885 8.00574 1.42874 8.00059 1.45138V1.45378C7.99769 1.4622 7.9926 1.46986 7.98769 1.47714C7.98384 1.48291 7.98017 1.48843 7.97792 1.49389C7.97041 1.50898 7.96526 1.52406 7.95532 1.5364C7.63506 1.92658 7.46023 2.41412 7.46023 2.914C7.46023 4.11125 8.43496 5.08635 9.63258 5.08635C10.1976 5.08635 10.7325 4.86898 11.1401 4.474C11.1435 4.47121 11.1468 4.46882 11.1502 4.46668C11.1551 4.4636 11.1599 4.46101 11.1648 4.45844C11.169 4.45619 11.1733 4.45394 11.1775 4.45138C11.1926 4.44144 11.2025 4.43149 11.2176 4.42395H11.2227C11.2402 4.41674 11.2605 4.414 11.2804 4.41161C11.2927 4.41161 11.3054 4.40406 11.3177 4.40646C11.3328 4.40646 11.3452 4.41161 11.3602 4.414C11.3777 4.4164 11.3952 4.4188 11.4103 4.42395C11.4168 4.4271 11.4223 4.43143 11.4281 4.43617L11.4313 4.4388L11.4377 4.44383C11.4576 4.45378 11.4751 4.46372 11.4925 4.47881C11.4925 4.48025 11.4925 4.48082 11.4931 4.48106C11.4934 4.48121 11.494 4.48121 11.495 4.48121C11.5049 4.49355 11.5124 4.50863 11.52 4.52372C11.5275 4.53606 11.5399 4.54361 11.545 4.55868C11.545 4.56019 11.545 4.56087 11.5455 4.56158L11.5462 4.56253L11.5474 4.56383ZM1.74994 7.59846C1.74994 8.15115 2.19774 8.59857 2.75006 8.59857C3.30238 8.59857 3.75018 8.15115 3.75018 7.59846C3.75018 7.04578 3.30238 6.59835 2.75006 6.59835C2.19738 6.59835 1.74994 7.04612 1.74994 7.59846ZM4.2497 3.34841C3.83724 3.34841 3.49988 3.68612 3.49988 4.09857C3.49988 4.51104 3.83759 4.84875 4.2497 4.84841C4.66252 4.84841 4.99988 4.51104 4.99988 4.09857C4.99988 3.68577 4.66217 3.34841 4.2497 3.34841ZM5.75006 10.0986C5.75006 10.5114 6.08742 10.8488 6.49988 10.8488C6.91235 10.8488 7.25006 10.511 7.25006 10.0986C7.25006 9.68612 6.91235 9.34875 6.49988 9.34875C6.08742 9.34875 5.75006 9.68612 5.75006 10.0986ZM6 6.72349C6 7.27618 6.4478 7.7236 7.00012 7.7236C7.55244 7.7236 7.99988 7.27618 8.00024 6.72349C8.00024 6.17081 7.55244 5.72338 7.00012 5.72338C6.44744 5.72338 6 6.17115 6 6.72349Z" fill="white"/>
</svg>
