<svg width="16" height="16" viewBox="0 0 16 16" fill="none" xmlns="http://www.w3.org/2000/svg">
<path d="M8.01407 2.61328C6.05259 2.61328 4.45852 4.20736 4.45852 6.16884V7.88143C4.45852 8.24291 4.30444 8.79402 4.12074 9.10217L3.43926 10.234C3.01852 10.9333 3.30889 11.7096 4.07926 11.9703C6.63333 12.8237 9.38889 12.8237 11.943 11.9703C12.66 11.7333 12.9741 10.8859 12.583 10.234L11.9015 9.10217C11.7237 8.79402 11.5696 8.24291 11.5696 7.88143V6.16884C11.5696 4.21328 9.96963 2.61328 8.01407 2.61328Z" stroke="#211E22" stroke-miterlimit="10" stroke-linecap="round"/>
<path d="M9.11056 2.78573C8.92686 2.7324 8.73723 2.69091 8.54167 2.66721C7.97278 2.5961 7.4276 2.63758 6.91797 2.78573C7.08982 2.34721 7.51649 2.03906 8.01426 2.03906C8.51204 2.03906 8.93871 2.34721 9.11056 2.78573Z" stroke="#211E22" stroke-miterlimit="10" stroke-linecap="round" stroke-linejoin="round"/>
<path d="M9.78993 12.1836C9.78993 13.1614 8.98993 13.9614 8.01215 13.9614C7.52623 13.9614 7.07586 13.7599 6.75586 13.4399C6.43586 13.1199 6.23438 12.6695 6.23438 12.1836" stroke="#211E22" stroke-miterlimit="10"/>
</svg>
