<svg width="24" height="24" viewBox="0 0 24 24" fill="none" xmlns="http://www.w3.org/2000/svg">
<path fill-rule="evenodd" clip-rule="evenodd" d="M0.562933 2.69513C0 3.77882 0 5.20255 0 8.05V15.95C0 18.7975 0 20.2212 0.562933 21.3049C1.03731 22.2181 1.78191 22.9627 2.69513 23.4371C3.77882 24 5.20255 24 8.05 24H15.95C18.7975 24 20.2212 24 21.3049 23.4371C22.2181 22.9627 22.9627 22.2181 23.4371 21.3049C24 20.2212 24 18.7975 24 15.95V8.05C24 5.20255 24 3.77882 23.4371 2.69513C22.9627 1.78191 22.2181 1.03731 21.3049 0.562933C20.2212 0 18.7975 0 15.95 0H8.05C5.20255 0 3.77882 0 2.69513 0.562933C1.78191 1.03731 1.03731 1.78191 0.562933 2.69513ZM12.407 14.8417C12.407 16.3032 11.3248 17.2589 9.98981 17.2589C8.65482 17.2589 7.57259 16.1767 7.57259 14.8417C7.57259 13.6482 8.68425 12.5564 10.0303 12.6061C10.2946 12.6061 10.6048 12.669 10.7251 12.7115V9.93497C8.33383 9.45136 4.72339 11.43 4.72339 14.8417C4.72339 17.2589 6.58348 20 9.98981 20C13.3961 20 15.2977 17.2589 15.2977 14.8417V9.35059C15.8464 9.78561 17.4228 10.5695 19.2766 10.5695V7.8435C17.1089 7.88718 15.1434 5.97723 15.306 4H12.407V14.8417Z" fill="#CBCBCB"/>
</svg>
